<svg xmlns="http://www.w3.org/2000/svg" xmlns:xlink="http://www.w3.org/1999/xlink" preserveAspectRatio="xMidYMid meet" version="1.0" viewBox="0.0 0.0 400.0 400.0" zoomAndPan="magnify" style="fill: rgb(241, 196, 0);" original_string_length="17500" width="41.06976084777488px" height="41.06976084777488px"><g id="__id0_s4frmeb038"><path d="M176.86,0C176.86,0,176.86,0,176.86,0C176.86,0,176.86,0,176.86,0L176.86,0z M152.07,120.43c1.54,0.62,3.21,1.11,5.01,1.45 l-2.19,5.44c-1.17,2.92,0.25,6.24,3.17,7.41c2.92,1.17,6.24-0.25,7.41-3.17l3.28-8.16l1.15,0.15c6.4,0.81,13-0.44,18.45-3.1 c5.74-2.79,10.39-7.23,12.56-12.61c0.58-1.44,0.96-2.93,1.15-4.41l0-0.02c0.52-4.12-0.51-8.04-2.8-11.37 c-2.13-3.09-5.34-5.63-9.38-7.25c-2.04-0.82-4.32-1.41-6.8-1.73l-11.03-1.39c-1.45-0.18-2.79-0.53-3.99-1.01 c-1.91-0.77-3.37-1.87-4.24-3.14c-0.71-1.04-1.04-2.25-0.88-3.49l0.02-0.02c0.06-0.52,0.2-1.05,0.41-1.58 c1.06-2.64,3.66-4.97,6.98-6.59c3.61-1.75,7.9-2.58,12.02-2.07l5.2,0.66c0.21,0.04,0.41,0.06,0.62,0.08l5.21,0.66 c1.45,0.18,2.79,0.53,3.99,1.01c1.91,0.77,3.36,1.87,4.24,3.14c0.71,1.03,1.04,2.24,0.88,3.49c-0.06,0.49-0.21,1.03-0.44,1.6 c-1.17,2.92,0.25,6.24,3.17,7.41c2.92,1.17,6.24-0.25,7.41-3.17c0.58-1.45,0.96-2.93,1.15-4.41l0-0.02 c0.52-4.12-0.51-8.04-2.8-11.36c-2.13-3.09-5.34-5.63-9.38-7.25c-1.54-0.62-3.21-1.11-5.01-1.45l2.19-5.45 c1.17-2.92-0.25-6.24-3.17-7.41c-2.92-1.17-6.24,0.25-7.41,3.17l-3.29,8.16l-1.18-0.15c-6.39-0.8-12.97,0.44-18.43,3.1 c-5.74,2.8-10.39,7.23-12.56,12.61c-0.6,1.49-0.99,2.98-1.15,4.44c-0.52,4.13,0.52,8.04,2.8,11.37c2.13,3.09,5.35,5.63,9.38,7.25 c2.04,0.82,4.32,1.41,6.8,1.72l11.03,1.39l0,0c1.45,0.18,2.79,0.53,3.99,1.01c1.91,0.77,3.36,1.87,4.24,3.14 c0.71,1.03,1.04,2.24,0.88,3.49c-0.06,0.49-0.21,1.03-0.44,1.6c-1.06,2.64-3.66,4.97-6.98,6.59c-3.61,1.76-7.91,2.59-12.02,2.07 l-5.19-0.65c-0.22-0.04-0.43-0.07-0.65-0.08l-5.19-0.66c-1.45-0.18-2.79-0.53-3.99-1.01c-1.91-0.77-3.36-1.87-4.24-3.14 c-0.71-1.03-1.04-2.24-0.88-3.49c0.06-0.49,0.21-1.03,0.44-1.6c1.17-2.92-0.25-6.24-3.17-7.41c-2.92-1.17-6.24,0.25-7.41,3.17 c-0.58,1.45-0.96,2.93-1.15,4.41l0,0.02c-0.52,4.12,0.51,8.04,2.8,11.36C144.82,116.27,148.04,118.81,152.07,120.43z M176.86,22.93 C176.86,22.93,176.86,22.93,176.86,22.93C176.86,22.93,176.86,22.93,176.86,22.93L176.86,22.93z M27.02,88.01 c0-18.93,17.49-35.61,45.76-47.25c26.75-11.02,63.56-17.84,104.08-17.84s77.33,6.82,104.08,17.84 c28.27,11.64,45.76,28.32,45.76,47.25c0,18.93-17.49,35.61-45.76,47.25c-26.75,11.02-63.56,17.84-104.08,17.84 c-40.52,0-77.33-6.82-104.08-17.84C44.51,123.62,27.02,106.94,27.02,88.01z M38.44,88.01c0,13.86,14.78,26.88,38.67,36.72 c25.41,10.47,60.67,16.94,99.75,16.94s74.34-6.48,99.75-16.94c23.89-9.84,38.67-22.86,38.67-36.72c0-13.86-14.78-26.88-38.67-36.72 c-25.41-10.47-60.67-16.94-99.75-16.94s-74.34,6.48-99.75,16.94C53.22,61.13,38.44,74.15,38.44,88.01z M400,169.09v61.81 c0,14.38-6.71,27.87-18.64,39.75c-0.26,0.32-0.56,0.62-0.89,0.88c-2.44,2.36-5.08,4.65-7.93,6.88l0.01,33.58 c0,25.1-20.4,47.47-53.38,63.32C287.46,390.57,243.79,400,195.7,400s-91.76-9.44-123.47-24.69c-32.98-15.86-53.38-38.22-53.38-63.32 v-61.8c0,0,0,0,0-0.01c0-9.07,2.69-17.82,7.69-26.06c3.72-6.12,8.72-11.93,14.84-17.36c-8.45-4.98-15.8-10.45-21.86-16.32 c-0.32-0.26-0.61-0.54-0.87-0.86C6.71,177.7,0,164.21,0,149.83V88.01h0c0-25.1,20.41-47.46,53.38-63.33C85.1,9.44,128.77,0,176.86,0 c48.09,0,91.76,9.44,123.47,24.69c32.98,15.86,53.38,38.23,53.38,63.33h0v21.38c13.88,7.49,25.13,16.22,33.04,25.84 C395.3,145.63,400,157.05,400,169.09z M353.71,122.47v14.1c5.67,4.35,10.22,9.06,13.45,14.05c3.8,5.84,5.82,12.04,5.82,18.48 c0,18.57-16.81,34.96-44.1,46.56c-25.76,10.94-61.31,17.92-100.71,18.46c-0.25,0.04-0.51,0.07-0.77,0.11 c-0.48,0.07-0.96,0.14-1.44,0.21c-2,0.28-4.02,0.55-6.05,0.8c-0.15,0.02-0.3,0.04-0.45,0.06c-0.01,0-0.02,0-0.03,0 c-0.03,0-0.06,0.01-0.1,0.01c-0.26,0.03-0.53,0.06-0.79,0.09c-1.8,0.21-3.6,0.41-5.42,0.6c-0.3,0.03-0.6,0.06-0.9,0.09 c-2.07,0.21-4.15,0.39-6.24,0.56c-0.2,0.02-0.4,0.04-0.6,0.05c-0.31,0.02-0.63,0.05-0.94,0.07c-0.69,0.05-1.37,0.1-2.06,0.15 c-0.32,0.02-0.64,0.04-0.96,0.06c-8.03,0.55-16.23,0.84-24.56,0.84c-8.27,0-16.41-0.29-24.38-0.83c-0.41-0.03-0.83-0.05-1.23-0.08 c-0.63-0.04-1.26-0.09-1.89-0.14c-0.34-0.03-0.69-0.05-1.03-0.08l-1.54-0.13c-0.38-0.03-0.77-0.06-1.15-0.1l-0.75-0.06 c0.19,0.05,0.37,0.1,0.56,0.14c1.71,0.43,3.43,0.85,5.18,1.25c0,0,0.01,0,0.01,0c1.19,0.27,2.4,0.54,3.6,0.8 c0.16,0.03,0.31,0.06,0.46,0.1c8.64,1.85,17.68,3.36,27.03,4.5c0.06,0.01,0.11,0.01,0.17,0.02c13.19,1.59,27,2.45,41.25,2.45 c14.19,0,27.96-0.84,41.11-2.43c0.13-0.02,0.25-0.03,0.38-0.04c5.53-0.67,10.96-1.47,16.25-2.4c3.61-0.63,7.16-1.33,10.64-2.07 c0.22-0.06,0.44-0.11,0.67-0.14c0.01,0,0.03-0.01,0.04-0.01c3.71-0.8,7.35-1.67,10.91-2.6c5.38-1.4,10.57-2.94,15.57-4.61 c0.29-0.13,0.6-0.23,0.92-0.31c7.89-2.67,15.27-5.65,22.06-8.91c1.44-0.69,2.84-1.4,4.22-2.11c0.28-0.18,0.58-0.33,0.89-0.46 c10.25-5.39,18.92-11.42,25.66-17.92c0.27-0.33,0.58-0.63,0.91-0.9c9.73-9.71,15.18-20.45,15.18-31.67 c0-9.31-3.77-18.31-10.61-26.63C372.02,135.24,363.8,128.51,353.71,122.47z M336.93,125.85c-0.19,0.21-0.39,0.41-0.58,0.62v43.43 c0.34-0.55,0.66-1.11,0.96-1.67c0.2-0.37,0.39-0.74,0.58-1.11c0.12-0.24,0.25-0.47,0.36-0.71c0.24-0.49,0.47-0.97,0.68-1.46 c0.05-0.1,0.09-0.2,0.14-0.3c0.23-0.52,0.44-1.05,0.65-1.57c0.03-0.09,0.07-0.17,0.1-0.26c0.2-0.52,0.39-1.05,0.56-1.58 c0.03-0.1,0.07-0.2,0.1-0.31c0.17-0.51,0.32-1.02,0.46-1.53c0.04-0.14,0.07-0.27,0.11-0.41c0.13-0.48,0.25-0.96,0.36-1.44 c0.04-0.18,0.08-0.37,0.11-0.55c0.09-0.44,0.18-0.88,0.26-1.33c0.04-0.25,0.07-0.49,0.11-0.74c0.06-0.39,0.12-0.78,0.16-1.17 c0.04-0.34,0.06-0.67,0.09-1.01c0.03-0.31,0.06-0.62,0.08-0.94c0.03-0.58,0.05-1.16,0.05-1.74c0-0.08,0.01-0.15,0.01-0.23v-30.27 c-0.12,0.16-0.25,0.32-0.38,0.48c-0.39,0.51-0.79,1.02-1.21,1.53c-0.19,0.24-0.39,0.47-0.59,0.71c-0.4,0.48-0.81,0.97-1.24,1.44 c-0.21,0.24-0.43,0.49-0.65,0.73C337.8,124.92,337.37,125.39,336.93,125.85z M211.87,224.66c0.41-0.04,0.81-0.09,1.21-0.13V174.2 c-5.42,0.55-10.94,0.99-16.54,1.29v50.37c1.86-0.1,3.72-0.22,5.57-0.35c0.29-0.02,0.59-0.04,0.88-0.07 c0.72-0.05,1.44-0.11,2.16-0.17c2.02-0.16,4.02-0.34,6.01-0.54C211.4,224.71,211.63,224.68,211.87,224.66z M151.39,225.5 c1.91,0.14,3.84,0.26,5.77,0.37v-50.37c-5.59-0.3-11.11-0.74-16.53-1.29v50.33c0.33,0.03,0.66,0.08,0.99,0.11 c0.34,0.03,0.68,0.07,1.02,0.11c1.91,0.19,3.84,0.36,5.78,0.52c0.88,0.07,1.75,0.14,2.63,0.21 C151.16,225.48,151.28,225.49,151.39,225.5z M298.76,248.8v50.1c5.71-1.38,11.23-2.92,16.53-4.6v-49.9 C309.96,246.01,304.45,247.48,298.76,248.8z M326.71,240.67v49.7c5.27-1.99,10.27-4.12,14.99-6.39c0.52-0.25,1.03-0.51,1.54-0.76 V234C338.03,236.38,332.51,238.61,326.71,240.67z M287.33,251.21c-5.39,1.03-10.91,1.94-16.54,2.71v50.29 c5.64-0.8,11.16-1.73,16.54-2.8V251.21z M259.37,305.62v-50.33c-5.42,0.55-10.94,0.99-16.53,1.29v50.37 C248.44,306.63,253.95,306.19,259.37,305.62z M223.14,257.11c-2.77,0-5.53-0.04-8.27-0.1v50.35c2.21,0.06,4.42,0.1,6.63,0.13 c0.55,0,1.09,0.01,1.64,0.01c2.77,0,5.53-0.03,8.27-0.1v-50.38C228.67,257.08,225.92,257.11,223.14,257.11z M309.77,146.42 c-0.46,0.26-0.92,0.51-1.39,0.77v48.65c2.26-1.38,4.44-2.79,6.49-4.23c3.7-2.6,7.05-5.3,10.05-8.08v-46.99 c-0.04,0.03-0.08,0.06-0.11,0.08c-0.21,0.16-0.43,0.31-0.64,0.47c-0.63,0.47-1.27,0.95-1.93,1.41c-0.3,0.22-0.61,0.43-0.92,0.65 c-0.57,0.4-1.15,0.81-1.74,1.2c-0.35,0.24-0.71,0.47-1.06,0.71c-0.56,0.37-1.12,0.74-1.7,1.11c-0.38,0.24-0.76,0.49-1.15,0.73 c-0.56,0.35-1.13,0.7-1.71,1.05c-0.4,0.24-0.8,0.48-1.21,0.73c-0.58,0.35-1.17,0.69-1.76,1.03 C310.59,145.96,310.19,146.19,309.77,146.42z M296.96,152.92c-5.22,2.38-10.74,4.61-16.54,6.67v49.68c2.26-0.86,4.5-1.75,6.72-2.68 c3.4-1.43,6.68-2.92,9.81-4.47V152.92z M269,163.32c-5.33,1.6-10.85,3.07-16.54,4.4v50.09c2.39-0.58,4.77-1.19,7.14-1.84l0.33-0.07 c0.13-0.03,0.26-0.07,0.38-0.1c1.94-0.54,3.87-1.09,5.77-1.67c0.23-0.07,0.47-0.14,0.7-0.21c0.75-0.23,1.47-0.47,2.21-0.71V163.32z M241.04,170.13c-5.39,1.03-10.9,1.94-16.54,2.71v50.29c0.53-0.08,1.07-0.15,1.6-0.23c0.5-0.07,0.99-0.15,1.48-0.22 c0.75-0.11,1.5-0.23,2.24-0.35c0.51-0.08,1.03-0.16,1.53-0.25c0.4-0.07,0.8-0.14,1.21-0.2c2.85-0.48,5.67-1.01,8.47-1.57V170.13z M185.12,226.31v-50.38c-2.74,0.06-5.49,0.1-8.27,0.1c-2.77,0-5.53-0.03-8.27-0.1v50.38c2.74,0.06,5.5,0.1,8.27,0.1 C179.63,226.41,182.38,226.38,185.12,226.31z M158.95,301.15c5.43,1.08,10.95,2.03,16.54,2.84v-50.06 c-5.63-0.77-11.15-1.68-16.54-2.71V301.15z M186.91,255.28v50.15c5.47,0.6,10.99,1.07,16.54,1.41v-50.26 C197.85,256.27,192.34,255.83,186.91,255.28z M63.53,250.74l0.12,0.19v-33.21c-0.31-0.13-0.63-0.25-0.94-0.38 c-0.76-0.31-1.5-0.65-2.25-0.98c-0.48-0.21-0.96-0.41-1.44-0.62c-0.43-0.19-0.88-0.37-1.31-0.57v15.73c0,1.26,0.07,2.51,0.21,3.76 c0.04,0.3,0.08,0.6,0.12,0.9c0.03,0.24,0.06,0.48,0.1,0.71c0.05,0.3,0.1,0.59,0.15,0.89c0.08,0.43,0.15,0.86,0.25,1.29 c0.23,0.94,0.47,1.82,0.72,2.66c0.18,0.57,0.36,1.14,0.55,1.72c0.37,1.07,0.78,2.09,1.24,3.12c0.19,0.4,0.38,0.81,0.57,1.2 c0.01,0.01,0.01,0.03,0.02,0.04c0.08,0.17,0.17,0.34,0.25,0.51c0.42,0.84,0.88,1.7,1.4,2.61C63.37,250.46,63.45,250.6,63.53,250.74z M101.24,167.72c-5.69-1.32-11.2-2.8-16.54-4.4v49.89l1.3,0.42l5.42,1.6c0.04,0.01,0.07,0.03,0.1,0.04c0.3,0.08,0.59,0.17,0.89,0.25 c1.01,0.28,2.01,0.55,2.99,0.81c0.12,0.03,0.24,0.06,0.35,0.09c0.58,0.15,1.15,0.3,1.72,0.45c0.82,0.21,1.64,0.42,2.47,0.62 c0.43,0.11,0.87,0.21,1.31,0.31V167.72z M80.22,269.04c0.63,0.5,1.26,1,1.9,1.49c0.25,0.14,0.46,0.31,0.66,0.49l2.82,2.02 c1.05,0.73,2.19,1.49,3.42,2.28l2.45,1.53c0.04,0.03,0.09,0.05,0.13,0.08v-48.66c-0.39-0.22-0.79-0.43-1.18-0.65 c-0.54-0.3-1.07-0.61-1.6-0.92c-0.4-0.23-0.81-0.46-1.2-0.69l-4.97-1.5c-1.7-0.53-3.43-1.09-5.18-1.67 c-0.24-0.07-0.48-0.14-0.7-0.24c-0.24-0.08-0.47-0.16-0.71-0.24c-0.21-0.07-0.42-0.15-0.64-0.22c-0.12-0.04-0.24-0.08-0.35-0.12 v42.44C76.55,265.93,78.2,267.41,80.22,269.04z M119.57,290.14v-49.47c-0.23-0.08-0.47-0.16-0.7-0.25 c-0.63-0.23-1.25-0.46-1.88-0.69c-0.66-0.25-1.33-0.49-1.99-0.74c-0.62-0.24-1.22-0.48-1.84-0.72c-0.65-0.25-1.3-0.51-1.94-0.76 c-0.6-0.24-1.2-0.49-1.79-0.74c-0.64-0.26-1.27-0.52-1.9-0.79c-0.59-0.25-1.17-0.51-1.75-0.76c-0.62-0.27-1.25-0.54-1.86-0.82 c-0.3-0.13-0.59-0.27-0.89-0.41v49.08C108.28,285.62,113.8,287.98,119.57,290.14z M129.2,223.13v-50.29 c-5.63-0.77-11.15-1.68-16.54-2.71v50.18c0.67,0.13,1.34,0.28,2.01,0.41c0.08,0.02,0.16,0.03,0.24,0.05 c2.02,0.39,4.06,0.75,6.11,1.09c0.49,0.08,0.97,0.17,1.46,0.25c0.41,0.07,0.82,0.13,1.23,0.2c0.85,0.13,1.69,0.27,2.54,0.4 c0.4,0.06,0.8,0.12,1.2,0.18C128.04,222.97,128.62,223.05,129.2,223.13z M56.74,152.91v49.21c0.16,0.08,0.32,0.16,0.48,0.24 c0.26,0.13,0.51,0.25,0.77,0.38c2.87,1.38,5.9,2.74,9.09,4.07c2.03,0.85,4.11,1.66,6.2,2.45v-49.68 C67.49,157.52,61.96,155.29,56.74,152.91z M143.7,247.89c-0.6-0.15-1.19-0.3-1.78-0.46c-0.85-0.22-1.7-0.43-2.54-0.65 c-0.67-0.18-1.33-0.36-1.99-0.54c-0.75-0.21-1.51-0.41-2.26-0.62c-0.68-0.19-1.35-0.39-2.02-0.59c-0.71-0.21-1.42-0.41-2.12-0.62 v49.64c5.36,1.68,10.88,3.21,16.54,4.57V248.8C146.25,248.5,144.97,248.2,143.7,247.89z M299.47,213.59 c9.1-2.41,17.47-5.23,24.95-8.41c22.99-9.77,37.14-22.53,37.14-36.07c0-4.19-1.37-8.32-3.95-12.28l0,0c-1.1-1.7-2.42-3.37-3.94-5.01 c0,0.05-0.01,0.11-0.01,0.16c-0.01,0.14-0.01,0.28-0.02,0.42c-0.01,0.23-0.04,0.45-0.05,0.68c-0.01,0.21-0.03,0.42-0.05,0.63 c-0.02,0.21-0.03,0.42-0.05,0.63c-0.02,0.22-0.05,0.43-0.07,0.65c-0.03,0.23-0.06,0.45-0.09,0.68c-0.08,0.66-0.18,1.31-0.29,1.96 c-0.03,0.18-0.06,0.36-0.1,0.54c-0.14,0.74-0.29,1.47-0.46,2.21c-0.02,0.09-0.04,0.17-0.06,0.26c-1.03,4.32-2.67,8.53-4.88,12.62 c-0.06,0.12-0.13,0.24-0.2,0.36c-0.35,0.64-0.72,1.28-1.1,1.92c-0.13,0.22-0.26,0.44-0.39,0.65c-0.32,0.51-0.64,1.02-0.98,1.53 c-0.2,0.3-0.39,0.61-0.6,0.91c-0.24,0.35-0.5,0.71-0.75,1.06c-2.49,3.52-5.4,6.93-8.71,10.2c-0.13,0.14-0.26,0.27-0.4,0.39 c-3.84,3.74-8.18,7.32-12.98,10.68c-4.9,3.44-10.26,6.68-16.02,9.68c-0.01,0.01-0.02,0.01-0.04,0.02c-0.02,0.01-0.04,0.02-0.07,0.04 c-1.05,0.55-2.11,1.09-3.19,1.62c-0.2,0.1-0.4,0.2-0.6,0.29C300.84,212.92,300.16,213.26,299.47,213.59z M28.78,183.59 c4.68,4.33,10.23,8.44,16.54,12.28v-48.68c-0.47-0.26-0.93-0.51-1.39-0.77c-0.4-0.23-0.79-0.45-1.19-0.68 c-0.61-0.35-1.21-0.7-1.81-1.05c-0.39-0.23-0.77-0.46-1.16-0.7c-0.6-0.36-1.19-0.73-1.77-1.09c-0.36-0.23-0.73-0.46-1.09-0.69 c-0.6-0.38-1.19-0.77-1.77-1.16c-0.33-0.22-0.66-0.44-0.99-0.66c-0.62-0.42-1.23-0.84-1.83-1.27c-0.28-0.19-0.56-0.39-0.83-0.58 c-0.7-0.5-1.38-1-2.06-1.51c-0.17-0.13-0.34-0.25-0.51-0.38c-0.04-0.03-0.09-0.07-0.14-0.1V183.59z M47.63,345.76 c4.68,4.33,10.23,8.44,16.53,12.28v-48.69c-0.45-0.25-0.9-0.5-1.35-0.75c-0.44-0.25-0.87-0.5-1.3-0.75 c-0.57-0.33-1.13-0.65-1.69-0.99c-0.42-0.25-0.84-0.5-1.25-0.75c-0.56-0.34-1.12-0.68-1.67-1.03c-0.4-0.25-0.79-0.5-1.18-0.75 c-0.56-0.36-1.12-0.73-1.67-1.09c-0.36-0.24-0.73-0.48-1.08-0.72c-0.58-0.39-1.15-0.79-1.72-1.19c-0.31-0.22-0.63-0.44-0.94-0.66 c-0.65-0.46-1.28-0.93-1.91-1.4c-0.22-0.16-0.44-0.32-0.65-0.48c-0.04-0.03-0.08-0.06-0.11-0.08V345.76z M103.54,325.48v49.9 c5.31,1.68,10.83,3.21,16.54,4.6v-50.1C114.39,328.56,108.88,327.09,103.54,325.48z M131.51,382.49c5.37,1.07,10.89,2,16.54,2.8V335 c-5.63-0.77-11.15-1.68-16.54-2.71V382.49z M159.47,386.7c5.42,0.57,10.93,1.01,16.54,1.33v-50.37c-5.59-0.3-11.11-0.74-16.54-1.29 V386.7z M215.39,337.65v50.37c5.6-0.31,11.12-0.76,16.53-1.33v-50.33C226.5,336.92,220.98,337.35,215.39,337.65z M243.35,385.29 c5.64-0.8,11.16-1.73,16.54-2.8v-50.2c-5.39,1.03-10.9,1.94-16.54,2.71V385.29z M271.31,379.98c5.71-1.38,11.23-2.92,16.53-4.6 V325.5c-0.09,0.03-0.17,0.05-0.25,0.08c-5.25,1.57-10.68,3-16.28,4.3V379.98z M327.23,309.35v48.69c6.3-3.84,11.85-7.95,16.54-12.28 v-47.04c-0.02,0.02-0.05,0.04-0.08,0.06c-0.6,0.45-1.22,0.9-1.83,1.34c-0.52,0.38-1.03,0.76-1.56,1.13 c-0.67,0.47-1.36,0.93-2.04,1.39c-0.51,0.34-1,0.68-1.51,1.02c-0.74,0.48-1.51,0.96-2.27,1.44c-0.49,0.3-0.96,0.61-1.45,0.91 c-0.82,0.5-1.66,0.99-2.5,1.48c-0.46,0.27-0.91,0.54-1.38,0.81C328.51,308.65,327.87,309,327.23,309.35z M363.65,270.93 c2.72-2.03,5.25-4.11,7.57-6.25v-47.04c-0.04,0.03-0.09,0.06-0.13,0.1c-0.17,0.13-0.35,0.26-0.52,0.39c-0.67,0.5-1.35,1.01-2.05,1.5 c-0.28,0.2-0.56,0.39-0.84,0.59c-0.6,0.42-1.21,0.85-1.83,1.27c-0.33,0.22-0.66,0.44-0.99,0.66c-0.59,0.39-1.17,0.77-1.77,1.16 c-0.36,0.23-0.72,0.46-1.09,0.69c-0.59,0.37-1.18,0.73-1.78,1.1c-0.38,0.23-0.76,0.46-1.14,0.69c-0.6,0.36-1.22,0.71-1.83,1.07 c-0.39,0.22-0.77,0.45-1.16,0.67c-0.47,0.26-0.94,0.52-1.41,0.78v48.51c2.91-1.72,5.79-3.51,8.79-5.75 C363.53,270.99,363.59,270.97,363.65,270.93z M11.42,88.01c0,6.21,1.68,12.28,4.82,18.1c2.53,4.69,6.01,9.22,10.35,13.55 c0.34,0.27,0.65,0.58,0.93,0.92c6.74,6.5,15.4,12.53,25.65,17.92c0.31,0.13,0.61,0.28,0.89,0.46c1.39,0.72,2.79,1.43,4.23,2.12 c6.8,3.27,14.2,6.26,22.1,8.93c0.29,0.07,0.58,0.17,0.85,0.28c8.33,2.78,17.22,5.21,26.58,7.23c0.21,0.03,0.42,0.08,0.62,0.13 c8.62,1.85,17.64,3.35,26.97,4.49c0.08,0.01,0.16,0.02,0.24,0.03c13.17,1.59,26.97,2.44,41.2,2.44c14.22,0,28.01-0.85,41.18-2.43 c0.09-0.01,0.18-0.02,0.27-0.03c9.34-1.13,18.36-2.64,26.99-4.49c0.19-0.05,0.38-0.09,0.57-0.12c9.36-2.03,18.25-4.45,26.59-7.23 c0.28-0.12,0.56-0.21,0.86-0.29c7.9-2.67,15.3-5.66,22.1-8.93c1.44-0.69,2.85-1.4,4.24-2.12c0.27-0.17,0.56-0.32,0.86-0.44 c10.26-5.39,18.93-11.42,25.67-17.93c0.27-0.34,0.58-0.64,0.92-0.9c5.45-5.45,9.56-11.21,12.12-17.21c2-4.7,3.06-9.53,3.06-14.46 c0-20.35-17.91-39.14-46.87-53.07c-30.22-14.53-72.14-23.52-118.56-23.52c-46.43,0-88.34,8.99-118.56,23.52 C29.34,48.87,11.42,67.66,11.42,88.01z M11.42,149.83c0,6.91,2.07,13.64,5.93,20.06v-43.43c-0.19-0.2-0.37-0.39-0.56-0.59 c-0.45-0.48-0.9-0.96-1.33-1.45c-0.21-0.23-0.42-0.46-0.62-0.7c-0.43-0.49-0.85-0.98-1.26-1.47c-0.19-0.23-0.38-0.46-0.57-0.68 c-0.42-0.51-0.82-1.03-1.22-1.55c-0.12-0.16-0.25-0.31-0.37-0.47V149.83z M36.26,230.01c-3.9,6.42-5.99,13.19-5.99,20.17 c0,3.39,0.51,6.74,1.47,10.03c4.82,16.45,21.27,31.43,45.4,43.04c30.22,14.53,72.13,23.52,118.56,23.52 c32.58,0,62.95-4.44,88.63-12.12v0c0.71-0.21,1.4-0.43,2.1-0.65c0.79-0.25,1.59-0.49,2.38-0.74c0.74-0.24,1.47-0.49,2.21-0.73 c0.59-0.2,1.19-0.39,1.78-0.59c-4.34,0.93-8.54,1.71-12.67,2.37c-4.66,0.78-9.41,1.46-14.24,2.05c-0.11,0.02-0.22,0.03-0.33,0.04 c-12.21,1.48-24.91,2.33-37.97,2.49c-0.01,0-0.01,0-0.02,0c0,0,0,0,0,0c-1.47,0.02-2.94,0.03-4.42,0.03 c-14.61,0-28.82-0.88-42.4-2.52c-0.12-0.01-0.24-0.03-0.36-0.04c-6.05-0.74-11.98-1.63-17.76-2.66 c-32.97-3.13-61.8-10.87-82.35-21.5c-21.54-11.15-34.41-25.72-34.41-42.02c0-1.83,0.18-3.72,0.54-5.64l0-0.02 c0.23-1.27,0.56-2.54,0.95-3.79c-0.33-1.5-0.58-3.01-0.75-4.54c0-0.03-0.01-0.07-0.01-0.1c0-0.01,0-0.03,0-0.04 c-0.19-1.69-0.29-3.4-0.3-5.11c0-0.01,0-0.02,0-0.03V217.7C42.21,221.64,38.84,225.76,36.26,230.01z M30.27,311.99 c0,6.91,2.07,13.64,5.93,20.07v-43.43c-0.2-0.2-0.39-0.41-0.58-0.62c-0.44-0.46-0.87-0.93-1.29-1.4c-0.22-0.25-0.44-0.49-0.66-0.74 c-0.42-0.47-0.82-0.95-1.22-1.43c-0.2-0.24-0.41-0.49-0.61-0.73c-0.4-0.49-0.79-0.99-1.18-1.49c-0.13-0.17-0.27-0.34-0.4-0.51 V311.99z M77.13,365.05c4.72,2.27,9.72,4.4,14.99,6.39v-49.7c-5.79-2.06-11.32-4.29-16.54-6.67v49.21 C76.1,364.55,76.61,364.8,77.13,365.05z M203.97,388.48v-50.39c-2.74,0.06-5.49,0.1-8.27,0.1c-2.77,0-5.53-0.03-8.27-0.1v50.38 c2.74,0.06,5.5,0.1,8.27,0.1C198.47,388.58,201.23,388.54,203.97,388.48z M314.26,365.05c0.52-0.25,1.03-0.51,1.54-0.76v-49.21 c-1.02,0.47-2.06,0.93-3.11,1.38c-0.2,0.09-0.4,0.18-0.6,0.27c-1.47,0.64-2.97,1.26-4.48,1.87c-0.04,0.02-0.09,0.04-0.13,0.05 c-2.67,1.07-5.41,2.1-8.21,3.1v49.69C304.53,369.46,309.54,367.32,314.26,365.05z M361.13,286.36c-1.85,1.19-3.91,2.37-5.94,3.47 v42.23c3.87-6.42,5.94-13.16,5.94-20.07h0V286.36z M388.24,201.06c-0.41,0.54-0.84,1.08-1.27,1.61c-0.18,0.22-0.36,0.43-0.54,0.65 c-0.42,0.51-0.85,1.01-1.29,1.51c-0.2,0.22-0.4,0.45-0.6,0.67c-0.44,0.49-0.89,0.98-1.35,1.47c-0.18,0.19-0.37,0.39-0.55,0.58v43.43 c3.86-6.42,5.94-13.16,5.94-20.07v-30.27C388.47,200.78,388.35,200.92,388.24,201.06z" style="fill: inherit;"/></g></svg>